HIERARCHY
ROOT mPelvis
{
	OFFSET 0.000000 1.067000 -0.000000
	CHANNELS 6 Xposition Yposition Zposition Xrotation Yrotation Zrotation
	JOINT mTorso
	{
		OFFSET 0.000000 0.084000 -0.000000
		CHANNELS 3 Xrotation Yrotation Zrotation
		JOINT mChest
		{
			OFFSET 0.000000 0.205000 -0.015000
			CHANNELS 3 Xrotation Yrotation Zrotation
			JOINT mNeck
			{
				OFFSET 0.000000 0.251000 -0.010000
				CHANNELS 3 Xrotation Yrotation Zrotation
				JOINT mHead
				{
					OFFSET 0.000000 0.076000 0.000000
					CHANNELS 3 Xrotation Yrotation Zrotation
					JOINT mSkull
					{
						OFFSET 0.000000 0.079000 0.000000
						CHANNELS 3 Xrotation Yrotation Zrotation
						End Site
						{
							OFFSET -0.000000 -0.100000 0.000000
						}
					}
					JOINT mEyeRight
					{
						OFFSET -0.036000 0.079000 0.098000
						CHANNELS 3 Xrotation Yrotation Zrotation
						End Site
						{
							OFFSET -0.000000 -0.100000 0.000000
						}
					}
					JOINT mEyeLeft
					{
						OFFSET 0.036000 0.079000 0.098000
						CHANNELS 3 Xrotation Yrotation Zrotation
						End Site
						{
							OFFSET -0.000000 -0.100000 0.000000
						}
					}
					JOINT HEAD
					{
						OFFSET 0.000000 0.070000 0.020000
						CHANNELS 3 Xrotation Yrotation Zrotation
						End Site
						{
							OFFSET -0.000000 -0.100000 0.000000
						}
					}
				}
				JOINT NECK
				{
					OFFSET 0.000000 0.020000 0.000000
					CHANNELS 3 Xrotation Yrotation Zrotation
					End Site
					{
						OFFSET -0.000000 -0.100000 0.000000
					}
				}
			}
			JOINT mCollarLeft
			{
				OFFSET 0.085000 0.165000 -0.021000
				CHANNELS 3 Xrotation Yrotation Zrotation
				JOINT mShoulderLeft
				{
					OFFSET 0.079000 0.000000 -0.000000
					CHANNELS 3 Xrotation Yrotation Zrotation
					JOINT mElbowLeft
					{
						OFFSET 0.248000 0.000000 -0.000000
						CHANNELS 3 Xrotation Yrotation Zrotation
						JOINT mWristLeft
						{
							OFFSET 0.205000 0.000000 -0.000000
							CHANNELS 3 Xrotation Yrotation Zrotation
							JOINT L_HAND
							{
								OFFSET 0.050000 0.000000 0.010000
								CHANNELS 3 Xrotation Yrotation Zrotation
								End Site
								{
									OFFSET 0.000000 -0.100000 0.000000
								}
							}
						}
						JOINT L_LOWER_ARM
						{
							OFFSET 0.100000 0.000000 -0.000000
							CHANNELS 3 Xrotation Yrotation Zrotation
							End Site
							{
								OFFSET 0.000000 -0.100000 0.000000
							}
						}
					}
					JOINT L_UPPER_ARM
					{
						OFFSET 0.120000 0.010000 -0.000000
						CHANNELS 3 Xrotation Yrotation Zrotation
						End Site
						{
							OFFSET 0.000000 -0.100000 0.000000
						}
					}
				}
				JOINT L_CLAVICLE
				{
					OFFSET 0.000000 0.020000 0.020000
					CHANNELS 3 Xrotation Yrotation Zrotation
					End Site
					{
						OFFSET -0.000000 -0.100000 0.000000
					}
				}
			}
			JOINT mCollarRight
			{
				OFFSET -0.085000 0.165000 -0.021000
				CHANNELS 3 Xrotation Yrotation Zrotation
				JOINT mShoulderRight
				{
					OFFSET -0.079000 0.000000 0.000000
					CHANNELS 3 Xrotation Yrotation Zrotation
					JOINT mElbowRight
					{
						OFFSET -0.248000 0.000000 0.000000
						CHANNELS 3 Xrotation Yrotation Zrotation
						JOINT mWristRight
						{
							OFFSET -0.205000 0.000000 0.000000
							CHANNELS 3 Xrotation Yrotation Zrotation
							JOINT R_HAND
							{
								OFFSET -0.050000 0.000000 0.010000
								CHANNELS 3 Xrotation Yrotation Zrotation
								End Site
								{
									OFFSET 0.000000 -0.100000 0.000000
								}
							}
						}
						JOINT R_LOWER_ARM
						{
							OFFSET -0.100000 0.000000 0.000000
							CHANNELS 3 Xrotation Yrotation Zrotation
							End Site
							{
								OFFSET 0.000000 -0.100000 0.000000
							}
						}
					}
					JOINT R_UPPER_ARM
					{
						OFFSET -0.120000 0.010000 0.000000
						CHANNELS 3 Xrotation Yrotation Zrotation
						End Site
						{
							OFFSET 0.000000 -0.100000 0.000000
						}
					}
				}
				JOINT R_CLAVICLE
				{
					OFFSET 0.000000 0.020000 0.020000
					CHANNELS 3 Xrotation Yrotation Zrotation
					End Site
					{
						OFFSET -0.000000 -0.100000 0.000000
					}
				}
			}
			JOINT CHEST
			{
				OFFSET 0.000000 0.070000 0.028000
				CHANNELS 3 Xrotation Yrotation Zrotation
				End Site
				{
					OFFSET -0.000000 -0.100000 0.000000
				}
			}
			JOINT LEFT_PEC
			{
				OFFSET 0.082000 0.042000 0.119000
				CHANNELS 3 Xrotation Yrotation Zrotation
				End Site
				{
					OFFSET 0.000000 -0.100000 0.000000
				}
			}
			JOINT RIGHT_PEC
			{
				OFFSET -0.082000 0.042000 0.119000
				CHANNELS 3 Xrotation Yrotation Zrotation
				End Site
				{
					OFFSET 0.000000 -0.100000 0.000000
				}
			}
			JOINT UPPER_BACK
			{
				OFFSET 0.000000 0.017253 0.000000
				CHANNELS 3 Xrotation Yrotation Zrotation
				End Site
				{
					OFFSET -0.000000 -0.100000 0.000000
				}
			}
		}
		JOINT BELLY
		{
			OFFSET 0.000000 0.040000 0.028000
			CHANNELS 3 Xrotation Yrotation Zrotation
			End Site
			{
				OFFSET -0.000000 -0.100000 0.000000
			}
		}
		JOINT LOWER_BACK
		{
			OFFSET 0.000000 0.022848 -0.000000
			CHANNELS 3 Xrotation Yrotation Zrotation
			End Site
			{
				OFFSET -0.000000 -0.100000 0.000000
			}
		}
	}
	JOINT mHipRight
	{
		OFFSET -0.129000 -0.041000 0.034000
		CHANNELS 3 Xrotation Yrotation Zrotation
		JOINT mKneeRight
		{
			OFFSET 0.049000 -0.491000 -0.001000
			CHANNELS 3 Xrotation Yrotation Zrotation
			JOINT mAnkleRight
			{
				OFFSET -0.000000 -0.468000 -0.029000
				CHANNELS 3 Xrotation Yrotation Zrotation
				JOINT mFootRight
				{
					OFFSET 0.000000 -0.061000 0.112000
					CHANNELS 3 Xrotation Yrotation Zrotation
					JOINT mToeRight
					{
						OFFSET 0.000000 0.000000 0.109000
						CHANNELS 3 Xrotation Yrotation Zrotation
						End Site
						{
							OFFSET -0.000000 -0.100000 0.000000
						}
					}
				}
				JOINT R_FOOT
				{
					OFFSET 0.000000 -0.041000 0.077000
					CHANNELS 3 Xrotation Yrotation Zrotation
					End Site
					{
						OFFSET 0.000000 -0.100000 0.000000
					}
				}
			}
			JOINT R_LOWER_LEG
			{
				OFFSET -0.000000 -0.200000 -0.020000
				CHANNELS 3 Xrotation Yrotation Zrotation
				End Site
				{
					OFFSET -0.000000 -0.100000 0.000000
				}
			}
		}
		JOINT R_UPPER_LEG
		{
			OFFSET 0.050000 -0.220000 -0.020000
			CHANNELS 3 Xrotation Yrotation Zrotation
			End Site
			{
				OFFSET -0.000000 -0.100000 0.000000
			}
		}
	}
	JOINT mHipLeft
	{
		OFFSET 0.127000 -0.041000 0.034000
		CHANNELS 3 Xrotation Yrotation Zrotation
		JOINT mKneeLeft
		{
			OFFSET -0.046000 -0.491000 -0.001000
			CHANNELS 3 Xrotation Yrotation Zrotation
			JOINT mAnkleLeft
			{
				OFFSET 0.001000 -0.468000 -0.029000
				CHANNELS 3 Xrotation Yrotation Zrotation
				JOINT mFootLeft
				{
					OFFSET 0.000000 -0.061000 0.112000
					CHANNELS 3 Xrotation Yrotation Zrotation
					JOINT mToeLeft
					{
						OFFSET 0.000000 0.000000 0.109000
						CHANNELS 3 Xrotation Yrotation Zrotation
						End Site
						{
							OFFSET -0.000000 -0.100000 0.000000
						}
					}
				}
				JOINT L_FOOT
				{
					OFFSET 0.000000 -0.041000 0.077000
					CHANNELS 3 Xrotation Yrotation Zrotation
					End Site
					{
						OFFSET 0.000000 -0.100000 0.000000
					}
				}
			}
			JOINT L_LOWER_LEG
			{
				OFFSET -0.000000 -0.200000 -0.020000
				CHANNELS 3 Xrotation Yrotation Zrotation
				End Site
				{
					OFFSET -0.000000 -0.100000 0.000000
				}
			}
		}
		JOINT L_UPPER_LEG
		{
			OFFSET -0.050000 -0.220000 -0.020000
			CHANNELS 3 Xrotation Yrotation Zrotation
			End Site
			{
				OFFSET -0.000000 -0.100000 0.000000
			}
		}
	}
	JOINT PELVIS
	{
		OFFSET -0.000000 -0.020000 -0.010000
		CHANNELS 3 Xrotation Yrotation Zrotation
		End Site
		{
			OFFSET -0.000000 -0.100000 0.000000
		}
	}
	JOINT BUTT
	{
		OFFSET -0.000000 -0.100000 -0.060000
		CHANNELS 3 Xrotation Yrotation Zrotation
		End Site
		{
			OFFSET -0.000000 -0.100000 0.000000
		}
	}
}
MOTION
Frames: 8
Frame Time: 0.022222
0.000000 1.067000 -0.000000 -0.000000 -0.000000 0.000000 0.000000 -0.000000 -0.000000 0.000000 -0.000000 -0.000000 0.000000 -0.000000 -0.000000 0.000000 -0.000000 0.000000 0.000002 0.000022 -179.999991 -0.000000 -0.000000 0.000000 -0.000000 -0.000000 0.000000 0.000000 -0.000000 0.000000 0.000000 -0.000000 0.000000 0.000000 -0.000000 -0.000000 0.000000 -0.000000 -0.000000 0.000000 -0.000000 0.000000 0.000000 0.000000 0.000000 -0.000000 0.000000 0.000000 -0.000000 -0.000000 -0.000000 -0.000000 -0.000000 -0.000000 0.000000 0.000000 -0.000000 0.000000 -0.000000 -0.000000 -0.000000 0.000000 -0.000000 -0.000000 -0.000000 -0.000000 -0.000000 0.000000 0.000000 -0.000000 -0.000000 0.000000 0.000000 -0.000000 0.000000 0.000000 -0.000000 0.000000 0.000000 -0.000000 0.000000 0.000000 -0.000000 -0.000000 0.000000 -0.000000 -0.000000 0.000000 -0.000000 -0.000000 0.000000 -0.000000 -0.000000 0.000000 -0.000000 -0.000000 0.000000 -0.000000 -0.000000 -0.000000 -0.000000 -0.000000 -0.000000 0.000003 0.000136 -0.000005 0.000000 -0.000000 -0.000008 0.000017 -0.000027 0.000000 -0.000000 -0.000000 -0.000010 0.000016 -0.000028 -0.000001 0.000000 0.000000 -0.000000 0.000003 0.000136 0.000000 0.000000 -0.000000 0.000000 0.000002 -0.000100 -0.000003 0.000002 -0.000001 0.000009 -0.000013 0.000025 0.000000 -0.000000 0.000000 0.000009 -0.000013 0.000025 0.000000 0.000001 0.000000 0.000000 0.000002 -0.000100 -0.000000 -0.000000 0.000000 -0.000000 -0.000000 0.000000 
0.000000 1.067000 -0.000000 -0.000000 -0.000000 0.000000 0.000000 -0.000000 -0.000000 0.000000 -0.000000 -0.000000 0.000000 -0.000000 -0.000000 0.000000 -0.000000 0.000000 0.000002 0.000022 -179.999991 -0.000000 -0.000000 0.000000 -0.000000 -0.000000 0.000000 0.000000 -0.000000 0.000000 0.000000 -0.000000 0.000000 0.000000 -0.000000 -0.000000 0.000000 -0.000000 -0.000000 0.000000 -0.000000 0.000000 0.000000 0.000000 0.000000 -0.000000 0.000000 0.000000 -0.000000 -0.000000 -0.000000 -0.000000 -0.000000 -0.000000 0.000000 0.000000 -0.000000 0.000000 -0.000000 -0.000000 -0.000000 0.000000 -0.000000 -0.000000 -0.000000 -0.000000 -0.000000 0.000000 0.000000 -0.000000 -0.000000 0.000000 0.000000 -0.000000 0.000000 0.000000 -0.000000 0.000000 0.000000 -0.000000 0.000000 0.000000 -0.000000 -0.000000 0.000000 -0.000000 -0.000000 0.000000 -0.000000 -0.000000 0.000000 -0.000000 -0.000000 0.000000 -0.000000 -0.000000 0.000000 -0.000000 -0.000000 -0.000000 -0.000000 -0.000000 -0.000000 0.000003 0.000136 -0.000005 0.000000 -0.000000 -0.000008 0.000017 -0.000027 0.000000 -0.000000 -0.000000 -0.000010 0.000016 -0.000028 -0.000001 0.000000 0.000000 -0.000000 0.000003 0.000136 0.000000 0.000000 -0.000000 0.000000 0.000002 -0.000100 -0.000003 0.000002 -0.000001 0.000009 -0.000013 0.000025 0.000000 -0.000000 0.000000 0.000009 -0.000013 0.000025 0.000000 0.000001 0.000000 0.000000 0.000002 -0.000100 -0.000000 -0.000000 0.000000 -0.000000 -0.000000 0.000000 
0.000000 1.067000 -0.000000 -0.000000 -0.000000 0.000000 0.000000 -0.000000 -0.000000 0.000000 -0.000000 -0.000000 0.000000 -0.000000 -0.000000 0.000000 -0.000000 0.000000 0.000002 0.000022 -179.999991 -0.000000 -0.000000 0.000000 -0.000000 -0.000000 0.000000 0.000000 -0.000000 0.000000 0.000000 -0.000000 0.000000 0.000000 -0.000000 -0.000000 -0.555755 -0.057458 -84.096424 -0.000000 0.000000 0.000001 0.879869 -0.033829 -4.403510 -0.000000 -0.000000 0.000000 -0.000000 0.000000 0.000001 0.000000 0.000000 0.000001 0.000000 0.000000 -0.000000 0.000000 -0.000000 -0.000000 -1.541243 15.193717 82.081778 0.000002 0.000000 0.000001 1.046036 0.047842 5.237183 -0.000001 -0.000001 -0.000000 0.000001 0.000000 0.000001 -0.000001 0.000000 0.000001 0.000000 -0.000000 0.000000 0.000000 -0.000000 -0.000000 0.000000 -0.000000 -0.000000 0.000000 -0.000000 -0.000000 0.000000 -0.000000 -0.000000 0.000000 -0.000000 -0.000000 0.000000 -0.000000 -0.000000 -0.000000 -0.000000 -0.000000 -0.000000 0.000003 0.000136 -0.000005 0.000000 -0.000000 -0.000008 0.000017 -0.000027 0.000000 -0.000000 -0.000000 -0.000010 0.000016 -0.000028 -0.000001 0.000000 0.000000 -0.000000 0.000003 0.000136 0.000000 0.000000 -0.000000 0.000000 0.000002 -0.000100 -0.000003 0.000002 -0.000001 0.000009 -0.000013 0.000025 0.000000 -0.000000 0.000000 0.000009 -0.000013 0.000025 0.000000 0.000001 0.000000 0.000000 0.000002 -0.000100 -0.000000 -0.000000 0.000000 -0.000000 -0.000000 0.000000 
0.000000 1.067000 -0.000000 -0.000000 -0.000000 0.000000 0.000000 -0.000000 -0.000000 0.000000 -0.000000 -0.000000 0.016257 -0.000000 -0.000000 0.013241 -0.000000 -0.000000 0.000002 0.000022 -179.999991 0.000000 -0.000000 -0.000000 0.000000 -0.000000 -0.000000 0.000000 -0.000000 -0.000000 -0.000000 -0.000000 -0.000000 0.000000 0.014918 -0.000000 -0.556154 -0.057079 -84.248908 -0.000000 -0.000000 0.000000 0.879869 -0.033830 -4.403510 0.000000 0.000000 0.000000 0.000000 0.000000 0.000000 -0.000000 -0.000000 0.000000 0.000000 0.000000 -0.000000 -0.001596 -0.011474 0.003432 -1.547198 15.199871 82.196853 0.000002 0.000000 0.000001 1.046037 0.047839 5.237183 -0.000002 0.000001 0.000000 -0.000001 -0.000000 0.000001 -0.000001 0.000000 0.000001 0.000000 0.000000 0.000000 0.000000 -0.000000 -0.000000 0.000000 -0.000000 -0.000000 0.000000 -0.000000 -0.000000 0.000000 -0.000000 -0.000000 0.000000 -0.000000 -0.000000 0.000000 -0.000000 -0.000000 -0.000000 -0.000000 -0.000000 -0.000000 0.000003 0.000136 -0.000005 0.000000 -0.000000 -0.000008 0.000017 -0.000027 0.000000 -0.000000 -0.000000 -0.000010 0.000016 -0.000028 -0.000001 0.000000 0.000000 -0.000000 0.000003 0.000136 0.000000 0.000000 -0.000000 0.000000 0.000002 -0.000100 -0.000003 0.000002 -0.000001 0.000009 -0.000013 0.000025 0.000000 -0.000000 0.000000 0.000009 -0.000013 0.000025 0.000000 0.000001 0.000000 0.000000 0.000002 -0.000100 -0.000000 -0.000000 0.000000 -0.000000 -0.000000 0.000000 
0.000000 1.067000 -0.000000 -0.000000 -0.000000 0.000000 0.000000 -0.000000 -0.000000 0.000000 -0.000000 -0.000000 0.063978 -0.000000 -0.000000 0.052204 -0.000000 -0.000000 0.000002 0.000022 -179.999991 0.000000 -0.000000 0.000000 0.000000 -0.000000 0.000000 0.000000 -0.000000 0.000000 0.000000 -0.000000 0.000000 0.000000 0.058710 0.000000 -0.556499 -0.056714 -84.390901 -0.000000 -0.000000 0.000000 0.879869 -0.033829 -4.403510 -0.000000 -0.000002 -0.000000 0.000000 -0.000000 0.000001 -0.000000 -0.000000 0.000000 0.000000 -0.000000 -0.000000 -0.006424 -0.045157 0.013506 -1.552686 15.204703 82.304087 0.000002 0.000000 0.000001 1.046035 0.047841 5.237182 -0.000001 0.000000 0.000000 -0.000001 0.000000 0.000001 0.000001 0.000000 0.000001 -0.000000 0.000000 -0.000000 0.000000 -0.000000 -0.000000 0.000000 -0.000000 -0.000000 0.000000 -0.000000 -0.000000 0.000000 -0.000000 -0.000000 0.000000 -0.000000 -0.000000 0.000000 -0.000000 -0.000000 -0.000000 -0.000000 -0.000000 -0.000000 0.000003 0.000136 -0.000005 0.000000 -0.000000 -0.000008 0.000017 -0.000027 0.000000 -0.000000 -0.000000 -0.000010 0.000016 -0.000028 -0.000001 0.000000 0.000000 -0.000000 0.000003 0.000136 0.000000 0.000000 -0.000000 0.000000 0.000002 -0.000100 -0.000003 0.000002 -0.000001 0.000009 -0.000013 0.000025 0.000000 -0.000000 0.000000 0.000009 -0.000013 0.000025 0.000000 0.000001 0.000000 0.000000 0.000002 -0.000100 -0.000000 -0.000000 0.000000 -0.000000 -0.000000 0.000000 
0.000000 1.067000 -0.000000 -0.000000 -0.000000 0.000000 0.000000 -0.000000 -0.000000 0.000000 -0.000000 -0.000000 0.141596 -0.000000 -0.000000 0.115745 -0.000000 -0.000000 0.000002 0.000022 -179.999991 0.000000 -0.000000 0.000000 0.000000 -0.000000 0.000000 0.000000 -0.000000 0.000000 -0.000000 -0.000000 0.000000 0.000000 0.129931 0.000000 -0.556792 -0.056365 -84.522758 0.000000 -0.000000 -0.000000 0.879869 -0.033829 -4.403510 -0.000000 -0.000000 0.000000 0.000000 -0.000000 0.000000 0.000000 0.000000 -0.000000 0.000000 0.000000 -0.000000 -0.014538 -0.099941 0.029882 -1.557716 15.208301 82.403787 0.000001 0.000000 -0.000000 1.046039 0.047839 5.237182 0.000000 0.000001 0.000000 0.000001 0.000000 0.000000 0.000000 -0.000000 0.000000 -0.000000 -0.000000 -0.000000 0.000000 -0.000000 -0.000000 0.000000 -0.000000 -0.000000 0.000000 -0.000000 -0.000000 0.000000 -0.000000 -0.000000 0.000000 -0.000000 -0.000000 0.000000 -0.000000 -0.000000 -0.000000 -0.000000 -0.000000 -0.000000 0.000003 0.000136 -0.000005 0.000000 -0.000000 -0.000008 0.000017 -0.000027 0.000000 -0.000000 -0.000000 -0.000010 0.000016 -0.000028 -0.000001 0.000000 0.000000 -0.000000 0.000003 0.000136 0.000000 0.000000 -0.000000 0.000000 0.000002 -0.000100 -0.000003 0.000002 -0.000001 0.000009 -0.000013 0.000025 0.000000 -0.000000 0.000000 0.000009 -0.000013 0.000025 0.000000 0.000001 0.000000 0.000000 0.000002 -0.000100 -0.000000 -0.000000 0.000000 -0.000000 -0.000000 0.000000 
0.000000 1.067000 -0.000000 -0.000000 -0.000000 0.000000 0.000000 -0.000000 -0.000000 0.000000 -0.000000 -0.000000 0.247540 -0.000000 -0.000000 0.202725 -0.000000 -0.000000 0.000002 0.000022 -179.999991 0.000000 -0.000000 0.000000 0.000000 -0.000000 0.000000 0.000000 -0.000000 0.000000 0.000000 -0.000000 0.000000 0.000000 0.227139 0.000000 -0.557034 -0.056030 -84.644943 0.000000 0.000000 -0.000000 0.879869 -0.033829 -4.403510 -0.000000 -0.000002 0.000000 0.000000 0.000000 0.000000 0.000000 0.000000 -0.000000 0.000000 0.000000 -0.000000 -0.025988 -0.174718 0.052222 -1.562299 15.210731 82.496254 0.000000 0.000000 0.000001 1.046039 0.047839 5.237183 0.000000 0.000003 -0.000000 -0.000000 -0.000000 0.000000 -0.000001 0.000000 0.000001 0.000000 0.000000 -0.000000 0.000000 -0.000000 -0.000000 0.000000 -0.000000 -0.000000 0.000000 -0.000000 -0.000000 0.000000 -0.000000 -0.000000 0.000000 -0.000000 -0.000000 0.000000 -0.000000 -0.000000 -0.000000 -0.000000 -0.000000 -0.000000 0.000003 0.000136 -0.000005 0.000000 -0.000000 -0.000008 0.000017 -0.000027 0.000000 -0.000000 -0.000000 -0.000010 0.000016 -0.000028 -0.000001 0.000000 0.000000 -0.000000 0.000003 0.000136 0.000000 0.000000 -0.000000 0.000000 0.000002 -0.000100 -0.000003 0.000002 -0.000001 0.000009 -0.000013 0.000025 0.000000 -0.000000 0.000000 0.000009 -0.000013 0.000025 0.000000 0.000001 0.000000 0.000000 0.000002 -0.000100 -0.000000 -0.000000 0.000000 -0.000000 -0.000000 0.000000 
0.000000 1.067000 -0.000000 -0.000000 -0.000000 0.000000 0.000000 -0.000000 -0.000000 0.000000 -0.000000 -0.000000 0.380243 -0.000000 -0.000000 0.312002 -0.000000 -0.000000 0.000002 0.000022 -179.999991 0.000000 -0.000000 -0.000000 0.000000 -0.000000 -0.000000 0.000000 -0.000000 0.000000 -0.000000 -0.000000 0.000000 0.000000 0.348890 0.000000 -0.557230 -0.055712 -84.757839 -0.000000 0.000000 -0.000000 0.879869 -0.033831 -4.403510 -0.000000 -0.000000 0.000000 -0.000000 0.000000 -0.000000 -0.000000 -0.000000 0.000000 0.000000 0.000000 -0.000000 -0.040817 -0.268382 0.080179 -1.566444 15.212086 82.581789 0.000001 0.000000 0.000001 1.046038 0.047839 5.237181 0.000000 0.000003 -0.000000 0.000001 -0.000000 0.000001 0.000000 0.000000 0.000001 0.000000 -0.000000 0.000000 0.000000 -0.000000 -0.000000 0.000000 -0.000000 -0.000000 0.000000 -0.000000 -0.000000 0.000000 -0.000000 -0.000000 0.000000 -0.000000 -0.000000 0.000000 -0.000000 -0.000000 -0.000000 -0.000000 -0.000000 -0.000000 0.000003 0.000136 -0.000005 0.000000 -0.000000 -0.000008 0.000017 -0.000027 0.000000 -0.000000 -0.000000 -0.000010 0.000016 -0.000028 -0.000001 0.000000 0.000000 -0.000000 0.000003 0.000136 0.000000 0.000000 -0.000000 0.000000 0.000002 -0.000100 -0.000003 0.000002 -0.000001 0.000009 -0.000013 0.000025 0.000000 -0.000000 0.000000 0.000009 -0.000013 0.000025 0.000000 0.000001 0.000000 0.000000 0.000002 -0.000100 -0.000000 -0.000000 0.000000 -0.000000 -0.000000 0.000000 
